HIERARCHY
ROOT Hips
{
	OFFSET 0.000000 0.000000 0.000000
	CHANNELS 6 Xposition Yposition Zposition Xrotation Yrotation Zrotation
	JOINT LeftUpLeg_virtual
	{
		OFFSET 0.000000 0.000000 0.000000
		CHANNELS 3 Xrotation Yrotation Zrotation
		JOINT LeftUpLeg
		{
			OFFSET 11.394100 -6.187798 -0.413800
			CHANNELS 3 Xrotation Yrotation Zrotation
			JOINT LeftLeg
			{
				OFFSET 0.430247 -32.302673 3.732800
				CHANNELS 3 Xrotation Yrotation Zrotation
				JOINT LeftFoot
				{
					OFFSET -0.430247 -48.264931 -6.423300
					CHANNELS 3 Xrotation Yrotation Zrotation
					JOINT LeftToeBase
					{
						OFFSET 4.230900 -16.068199 23.438400
						CHANNELS 3 Xrotation Yrotation Zrotation
						JOINT LeftToe_End
						{
							OFFSET 4.510700 0.695400 19.974600
							CHANNELS 3 Xrotation Yrotation Zrotation
							End Site
							{
								OFFSET 0 0 0
							}
						}
					}
				}
			}
		}
	}
	JOINT RightUpLeg_virtual
	{
		OFFSET 0.000000 0.000000 0.000000
		CHANNELS 3 Xrotation Yrotation Zrotation
		JOINT RightUpLeg
		{
			OFFSET -11.333700 -6.187798 -0.413800
			CHANNELS 3 Xrotation Yrotation Zrotation
			JOINT RightLeg
			{
				OFFSET -0.430392 -32.302628 3.733000
				CHANNELS 3 Xrotation Yrotation Zrotation
				JOINT RightFoot
				{
					OFFSET 0.430392 -48.264973 -6.423500
					CHANNELS 3 Xrotation Yrotation Zrotation
					JOINT RightToeBase
					{
						OFFSET -4.230900 -16.068199 23.438400
						CHANNELS 3 Xrotation Yrotation Zrotation
						JOINT RightToe_End
						{
							OFFSET -4.510700 0.695400 19.974600
							CHANNELS 3 Xrotation Yrotation Zrotation
							End Site
							{
								OFFSET 0 0 0
							}
						}
					}
				}
			}
		}
	}
	JOINT Spine_virtual
	{
		OFFSET 0.000000 0.000000 0.000000
		CHANNELS 3 Xrotation Yrotation Zrotation
		JOINT Spine
		{
			OFFSET -0.002400 12.777504 0.315300
			CHANNELS 3 Xrotation Yrotation Zrotation
			JOINT Spine1
			{
				OFFSET -0.002067 5.816869 0.032633
				CHANNELS 3 Xrotation Yrotation Zrotation
				JOINT Spine1_split
				{
					OFFSET -0.002067 5.816869 0.032633
					CHANNELS 3 Xrotation Yrotation Zrotation
					JOINT Spine2
					{
						OFFSET -0.002067 5.816869 0.032633
						CHANNELS 3 Xrotation Yrotation Zrotation
						JOINT Neck_virtual
						{
							OFFSET 0.000000 0.000000 0.000000
							CHANNELS 3 Xrotation Yrotation Zrotation
							JOINT Neck
							{
								OFFSET -0.003700 21.199493 -0.826900
								CHANNELS 3 Xrotation Yrotation Zrotation
								JOINT Head
								{
									OFFSET 0.000000 20.442200 4.834800
									CHANNELS 3 Xrotation Yrotation Zrotation
									JOINT HeadTop_End
									{
										OFFSET 0.000000 34.668396 4.968400
										CHANNELS 3 Xrotation Yrotation Zrotation
										End Site
										{
											OFFSET 0 0 0
										}
									}
								}
							}
						}
						JOINT LeftShoulder_virtual
						{
							OFFSET 0.000000 0.000000 0.000000
							CHANNELS 3 Xrotation Yrotation Zrotation
							JOINT LeftShoulder
							{
								OFFSET 3.288150 8.794197 -1.372250
								CHANNELS 3 Xrotation Yrotation Zrotation
								JOINT LeftShoulder_split
								{
									OFFSET 3.288150 8.794197 -1.372250
									CHANNELS 3 Xrotation Yrotation Zrotation
									JOINT LeftArm
									{
										OFFSET 11.953299 -2.279007 -0.146200
										CHANNELS 3 Xrotation Yrotation Zrotation
										JOINT LeftForeArm
										{
											OFFSET 18.448900 0.000000 0.000000
											CHANNELS 3 Xrotation Yrotation Zrotation
											JOINT LeftHand
											{
												OFFSET 29.527798 0.000000 0.000000
												CHANNELS 3 Xrotation Yrotation Zrotation
												End Site
												{
													OFFSET 0 0 0
												}
											}
										}
									}
								}
							}
						}
						JOINT RightShoulder_virtual
						{
							OFFSET 0.000000 0.000000 0.000000
							CHANNELS 3 Xrotation Yrotation Zrotation
							JOINT RightShoulder
							{
								OFFSET -3.249400 8.794197 -1.372250
								CHANNELS 3 Xrotation Yrotation Zrotation
								JOINT RightShoulder_split
								{
									OFFSET -3.249400 8.794197 -1.372250
									CHANNELS 3 Xrotation Yrotation Zrotation
									JOINT RightArm
									{
										OFFSET -11.953299 -2.279007 -0.146200
										CHANNELS 3 Xrotation Yrotation Zrotation
										JOINT RightForeArm
										{
											OFFSET -18.448900 0.000000 0.000000
											CHANNELS 3 Xrotation Yrotation Zrotation
											JOINT RightHand
											{
												OFFSET -29.527802 0.000000 0.000000
												CHANNELS 3 Xrotation Yrotation Zrotation
												End Site
												{
													OFFSET 0 0 0
												}
											}
										}
									}
								}
							}
						}
					}
				}
			}
		}
	}
}
MOTION
Frames: 7
Frame Time: 0.03333333
-13.723872 78.953552 -8.147480 0.000000 0.000000 0.000000 -0.897004 -30.838632 7.419285 -32.053562 2.343417 23.938654 45.481939 -12.720915 5.828355 -8.611304 -4.340855 -25.971665 -1.303516 -2.307077 -0.927482 0.000000 0.000000 0.000000 -0.538185 -30.186475 7.701433 -36.861267 -6.710427 -30.832864 60.743099 15.067319 -11.615102 -10.158090 -26.763941 46.832917 8.140502 16.024201 -32.744197 0.000000 0.000000 0.000000 -1.630536 -23.498072 6.099618 4.266208 4.990899 -3.865520 1.146147 -1.423626 -2.117508 0.159066 -0.742359 0.119887 0.000000 0.000000 0.000000 6.536008 0.830136 0.151354 8.280745 18.630649 -2.497996 -18.000211 5.226786 -24.095116 0.000000 0.000000 0.000000 3.433465 -0.801396 -1.563497 2.303067 8.718871 -5.481574 4.731115 -10.170194 3.333725 -77.651512 0.382148 -44.473920 135.755091 -76.087597 132.891179 0.000000 0.000000 0.000000 2.951257 -2.350514 -0.508367 -4.588037 6.344800 -11.636809 -7.846884 -5.238015 0.424933 -57.424501 21.218495 87.096858 -62.849106 74.330920 63.777779 0.000000 0.000000 0.000000 
-15.237911 79.673370 -8.629234 0.000000 0.000000 0.000000 -1.206858 -31.879638 7.445435 -31.104907 0.984012 23.941118 44.879892 -12.110436 5.850815 -5.251484 -4.230413 -26.270227 -3.528438 -2.399438 -2.547755 0.000000 0.000000 0.000000 -1.076597 -30.530522 7.731003 -36.180052 -8.241557 -31.205427 60.674148 14.158860 -10.953622 -13.061492 -27.538472 43.795255 10.545256 15.815394 -32.782142 0.000000 0.000000 0.000000 -2.091695 -23.872425 6.257572 4.177014 4.594994 -3.737724 1.071655 -1.590394 -2.085803 0.150181 -0.668312 0.114338 0.000000 0.000000 0.000000 6.607272 0.633138 0.117061 7.699152 18.513619 -2.780409 -16.604834 6.239708 -24.739763 0.000000 0.000000 0.000000 3.343724 -1.003108 -1.539155 2.281913 8.411871 -5.377308 5.061587 -9.984178 3.369953 -77.259295 0.893961 -44.556158 136.515210 -75.853349 133.227156 0.000000 0.000000 0.000000 2.865180 -2.539978 -0.460843 -4.616160 5.468656 -12.655287 -8.275637 -4.992880 0.665253 -57.172269 20.512827 87.028652 -70.044054 74.742740 70.828481 0.000000 0.000000 0.000000 
-16.696442 80.971207 -9.096039 0.000000 0.000000 0.000000 -1.286210 -32.487515 7.370790 -30.748470 -0.167419 23.586897 44.300146 -11.449814 5.977432 -1.570823 -4.569916 -26.287086 -7.503373 -2.377654 -4.128170 0.000000 0.000000 0.000000 -1.572243 -30.677416 7.600632 -35.244288 -10.128152 -31.285316 59.465273 13.474149 -10.067925 -15.005010 -27.312779 40.462973 11.937985 15.877487 -31.996988 0.000000 0.000000 0.000000 -2.145063 -23.955394 6.348383 4.039833 4.325115 -3.464998 1.001610 -1.774882 -2.062457 0.124389 -0.563908 0.104609 0.000000 0.000000 0.000000 6.591200 0.471877 0.076240 6.840420 18.292437 -2.750495 -15.087394 7.228685 -25.491301 0.000000 0.000000 0.000000 3.202198 -1.178427 -1.560492 2.268801 7.631739 -5.418128 5.525533 -9.797883 3.405207 -75.564978 1.488387 -45.031813 136.866869 -75.799206 133.110879 0.000000 0.000000 0.000000 2.663091 -2.660593 -0.383811 -4.720088 4.668518 -13.315495 -8.246249 -4.935363 0.748170 -56.798231 19.243353 87.343537 -79.423858 75.176709 80.115209 0.000000 0.000000 0.000000 
-18.024403 82.515961 -9.553040 0.000000 0.000000 0.000000 -1.258785 -32.699076 7.205949 -31.299103 -0.617409 22.913497 43.984489 -10.969221 6.112935 1.368556 -5.390011 -26.023519 -12.222396 -2.263712 -5.281151 0.000000 0.000000 0.000000 -1.900572 -30.932499 7.323745 -34.301879 -11.794837 -31.114370 57.507427 13.319993 -9.347574 -15.117324 -25.906679 38.535080 11.119253 16.422071 -30.729308 0.000000 0.000000 0.000000 -1.893565 -23.994728 6.376045 3.966229 4.260675 -3.083367 0.959767 -1.885564 -2.068870 0.109339 -0.443574 0.106201 0.000000 0.000000 0.000000 6.512036 0.417543 0.002664 5.836739 17.984477 -2.458927 -13.764417 8.088061 -26.218521 0.000000 0.000000 0.000000 3.009626 -1.263981 -1.667131 2.253732 6.567757 -5.718063 6.023427 -9.673669 3.471957 -72.540229 2.039592 -45.887762 136.703982 -75.805838 132.488950 0.000000 0.000000 0.000000 2.388751 -2.652345 -0.309521 -4.890848 3.954624 -13.432984 -7.762647 -5.214293 0.579101 -55.873068 18.177485 87.799930 -90.333855 75.467477 91.035029 0.000000 0.000000 0.000000 
-19.202328 83.945648 -9.863888 0.000000 0.000000 0.000000 -1.154371 -32.648711 7.014184 -33.112317 -0.292690 22.074142 44.497504 -11.086566 6.318184 3.162724 -6.711210 -25.845774 -15.063227 -2.161877 -6.158581 0.000000 0.000000 0.000000 -1.893368 -31.390860 7.021707 -33.083766 -13.088384 -30.525977 55.284733 13.430670 -8.886390 -14.759605 -24.292572 37.156472 9.693584 16.837142 -29.365336 0.000000 0.000000 0.000000 -1.509690 -24.016743 6.333569 4.049972 4.409565 -2.670024 0.927367 -1.881791 -2.082928 0.073872 -0.345774 0.119541 0.000000 0.000000 0.000000 6.361683 0.490545 -0.085809 4.786378 17.653114 -2.037102 -12.799268 8.770855 -26.852061 0.000000 0.000000 0.000000 2.778607 -1.239334 -1.815224 2.229819 5.406203 -6.243356 6.228446 -9.455251 3.603862 -68.338385 2.588798 -46.911635 136.253395 -75.824143 131.710991 0.000000 0.000000 0.000000 2.099284 -2.504076 -0.236006 -5.084452 3.392561 -13.007535 -7.074839 -5.753317 0.211765 -54.197408 17.856956 88.154014 -101.591250 75.539297 102.454012 0.000000 0.000000 0.000000 
-20.291630 84.940109 -10.051445 0.000000 0.000000 0.000000 -0.971820 -32.485882 6.826905 -35.785711 0.942046 21.143143 45.650129 -11.634198 6.402744 3.278621 -8.033132 -25.403379 -14.402203 -2.231258 -6.644897 0.000000 0.000000 0.000000 -1.624683 -31.850818 6.767783 -31.561642 -13.980446 -29.575378 53.206016 13.557406 -8.637111 -15.576684 -23.173951 35.287281 9.693730 16.600278 -28.382839 0.000000 0.000000 0.000000 -1.110735 -24.321211 6.220251 4.297175 4.765038 -2.260827 0.901479 -1.749196 -2.045199 0.047777 -0.274995 0.134100 0.000000 0.000000 0.000000 6.137439 0.682462 -0.133950 3.789773 17.346703 -1.668209 -12.305659 9.319752 -27.370617 0.000000 0.000000 0.000000 2.551098 -1.096104 -1.914879 2.199755 4.414288 -6.840076 6.179769 -9.011473 3.859421 -63.691002 3.174884 -47.916936 135.338545 -75.821691 130.641547 0.000000 0.000000 0.000000 1.863153 -2.224650 -0.142442 -5.241190 3.040931 -12.195243 -6.723271 -6.360282 -0.074981 -51.751442 18.607146 88.176356 -112.459017 75.346679 113.616577 0.000000 0.000000 0.000000 
-21.386892 85.348045 -10.063286 0.000000 0.000000 0.000000 -0.677982 -32.686157 6.644087 -38.762304 2.712951 20.401063 46.815018 -12.246545 6.246116 1.774679 -8.885247 -24.617467 -11.118717 -2.424468 -6.577568 0.000000 0.000000 0.000000 -1.180547 -32.270277 6.547747 -30.184747 -14.399512 -28.482184 52.232082 13.481156 -8.541229 -17.381901 -22.744841 33.158502 9.790646 16.132396 -27.790047 0.000000 0.000000 0.000000 -0.767639 -25.011507 6.040502 4.595012 5.260131 -1.895243 0.906264 -1.488629 -1.899534 0.051995 -0.221947 0.149815 0.000000 0.000000 0.000000 5.910568 0.975959 -0.078375 2.975733 17.164996 -1.503742 -12.141695 9.823754 -27.829990 0.000000 0.000000 0.000000 2.376719 -0.845761 -1.875588 2.168951 3.829964 -7.415763 5.861320 -8.526379 4.051267 -59.417708 3.909736 -48.791398 133.956716 -75.785566 129.308527 0.000000 0.000000 0.000000 1.723080 -1.863613 0.006103 -5.299163 2.946766 -11.210084 -6.703278 -6.816376 -0.424951 -48.894401 20.227093 87.852666 -122.220033 74.889377 123.756389 0.000000 0.000000 0.000000 
